<svg width="36" height="36" viewBox="0 0 36 36" fill="none" xmlns="http://www.w3.org/2000/svg">
<path fill-rule="evenodd" clip-rule="evenodd" d="M31.5 16.6463V24.1364C31.5 28.7812 31.5 31.1036 30.3988 32.1185C29.8737 32.6024 29.2108 32.9065 28.5046 32.9873C27.024 33.1567 25.2949 31.6274 21.8368 28.5687C20.3082 27.2167 19.5439 26.5407 18.6596 26.3626C18.2241 26.2749 17.7759 26.2749 17.3404 26.3626C16.4561 26.5407 15.6918 27.2167 14.1632 28.5687C10.7051 31.6274 8.97603 33.1567 7.49537 32.9873C6.78922 32.9065 6.12632 32.6024 5.60116 32.1185C4.5 31.1036 4.5 28.7812 4.5 24.1364V16.6463C4.5 10.2134 4.5 6.9969 6.47703 4.99845C8.45406 3 11.636 3 18 3C24.364 3 27.5459 3 29.523 4.99845C31.5 6.9969 31.5 10.2134 31.5 16.6463ZM12.375 9C12.375 8.37868 12.8787 7.875 13.5 7.875H22.5C23.1213 7.875 23.625 8.37868 23.625 9C23.625 9.62132 23.1213 10.125 22.5 10.125H13.5C12.8787 10.125 12.375 9.62132 12.375 9Z" fill="#896ADB"/>
</svg>
