<svg width="24" height="24" viewBox="0 0 24 24" fill="none" xmlns="http://www.w3.org/2000/svg">
<rect x="0.5" y="0.5" width="23" height="23" rx="11.5" stroke="#F9F9FB"/>
<path fill-rule="evenodd" clip-rule="evenodd" d="M14.7334 18.7953C14.4389 19.0682 13.9625 19.0682 13.6687 18.7953L7.44121 13.0108C7.30181 12.8832 7.19081 12.7298 7.11496 12.5597C7.03911 12.3896 7 12.2064 7 12.0214C7 11.8363 7.03911 11.6531 7.11496 11.483C7.19081 11.3129 7.30181 11.1595 7.44121 11.032L13.7138 5.20475C13.8562 5.07452 14.0447 5.00132 14.2411 5.00002C14.4375 4.99872 14.6271 5.06941 14.7713 5.19775C14.8427 5.26112 14.8999 5.33794 14.9392 5.42344C14.9785 5.50893 14.9992 5.6013 15 5.6948C15.0007 5.78831 14.9815 5.88097 14.9436 5.96704C14.9056 6.05311 14.8497 6.13077 14.7793 6.1952L9.03827 11.5268C8.96852 11.5906 8.91297 11.6673 8.87501 11.7524C8.83705 11.8375 8.81748 11.9291 8.81748 12.0217C8.81748 12.1143 8.83705 12.2059 8.87501 12.291C8.91297 12.3761 8.96852 12.4528 9.03827 12.5166L14.7334 17.8062C14.8032 17.8699 14.8587 17.9466 14.8967 18.0316C14.9346 18.1166 14.9542 18.2082 14.9542 18.3007C14.9542 18.3933 14.9346 18.4848 14.8967 18.5699C14.8587 18.6549 14.8032 18.7316 14.7334 18.7953Z" fill="#F9F9FB"/>
</svg>
