<svg width="20" height="20" viewBox="0 0 20 20" fill="none" xmlns="http://www.w3.org/2000/svg">
<path d="M5.83325 15H10.4166" stroke="#896ADB" stroke-width="1.5" stroke-linecap="round"/>
<path d="M6.66675 2.91669C6.66675 2.22633 7.22639 1.66669 7.91675 1.66669H12.0834C12.7738 1.66669 13.3334 2.22633 13.3334 2.91669V3.75002C13.3334 4.44038 12.7738 5.00002 12.0834 5.00002H7.91675C7.22639 5.00002 6.66675 4.44038 6.66675 3.75002V2.91669Z" stroke="#896ADB" stroke-width="1.5"/>
<path d="M17.5 13.3335C17.5 15.6905 17.5 16.869 16.7678 17.6013C16.0355 18.3335 14.857 18.3335 12.5 18.3335H7.5C5.14298 18.3335 3.96447 18.3335 3.23223 17.6013C2.5 16.869 2.5 15.6905 2.5 13.3335V10.8335M13.3333 3.33496C15.1459 3.34505 16.1274 3.42543 16.7678 4.06575C17.5 4.79798 17.5 5.97649 17.5 8.33351V10.0002M6.66667 3.33496C4.85414 3.34505 3.87255 3.42543 3.23223 4.06575C2.59193 4.70604 2.51154 5.68759 2.50145 7.5" stroke="#896ADB" stroke-width="1.5" stroke-linecap="round"/>
<path d="M5.83325 12.0833H6.66659M12.4999 12.0833H9.16659" stroke="#896ADB" stroke-width="1.5" stroke-linecap="round"/>
</svg>
