<svg width="20" height="20" viewBox="0 0 20 20" fill="none" xmlns="http://www.w3.org/2000/svg">
<g clip-path="url(#clip0_29_2569)">
<path d="M8.75 18.3333V16.6666M12.0833 18.3333V16.6666" stroke="#896ADB" stroke-width="1.5" stroke-linecap="round"/>
<path d="M9.16675 16.6667V17.4167H9.91675V16.6667H9.16675ZM0.916748 10C0.916748 10.4142 1.25253 10.75 1.66675 10.75C2.08096 10.75 2.41675 10.4142 2.41675 10H0.916748ZM2.41675 13.3333C2.41675 12.9191 2.08096 12.5833 1.66675 12.5833C1.25253 12.5833 0.916748 12.9191 0.916748 13.3333H2.41675ZM11.6667 15.9167C11.2525 15.9167 10.9167 16.2525 10.9167 16.6667C10.9167 17.0809 11.2525 17.4167 11.6667 17.4167V15.9167ZM17.5834 9.375C17.5834 9.78921 17.9192 10.125 18.3334 10.125C18.7476 10.125 19.0834 9.78921 19.0834 9.375H17.5834ZM14.5834 4.25C14.1692 4.25 13.8334 4.58579 13.8334 5C13.8334 5.41421 14.1692 5.75 14.5834 5.75V4.25ZM19.0834 12.5C19.0834 12.0858 18.7476 11.75 18.3334 11.75C17.9192 11.75 17.5834 12.0858 17.5834 12.5H19.0834ZM5.83341 4.25C5.4192 4.25 5.08341 4.58579 5.08341 5C5.08341 5.41421 5.4192 5.75 5.83341 5.75V4.25ZM7.50008 15.9167C7.08587 15.9167 6.75008 16.2525 6.75008 16.6667C6.75008 17.0809 7.08587 17.4167 7.50008 17.4167V15.9167ZM12.5001 17.4167C12.9143 17.4167 13.2501 17.0809 13.2501 16.6667C13.2501 16.2525 12.9143 15.9167 12.5001 15.9167V17.4167ZM9.16675 15.9167H3.52721V17.4167H9.16675V15.9167ZM3.52721 15.9167C3.01822 15.9167 2.41675 15.3933 2.41675 14.4961H0.916748C0.916748 15.9965 1.98119 17.4167 3.52721 17.4167V15.9167ZM5.41675 5.75C6.9693 5.75 8.41675 7.26034 8.41675 9.375H9.91675C9.91675 6.65717 8.00633 4.25 5.41675 4.25V5.75ZM5.41675 4.25C2.82717 4.25 0.916748 6.65717 0.916748 9.375H2.41675C2.41675 7.26034 3.86419 5.75 5.41675 5.75V4.25ZM8.41675 14.1667V16.6667H9.91675V14.1667H8.41675ZM8.41675 9.375V14.1667H9.91675V9.375H8.41675ZM2.41675 10V9.375H0.916748V10H2.41675ZM2.41675 14.4961V13.3333H0.916748V14.4961H2.41675ZM16.4943 15.9167H11.6667V17.4167H16.4943V15.9167ZM17.5834 14.5211C17.5834 15.4045 16.9915 15.9167 16.4943 15.9167V17.4167C18.0285 17.4167 19.0834 16.0076 19.0834 14.5211H17.5834ZM19.0834 9.375C19.0834 6.65717 17.173 4.25 14.5834 4.25V5.75C16.136 5.75 17.5834 7.26034 17.5834 9.375H19.0834ZM17.5834 12.5V14.5211H19.0834V12.5H17.5834ZM5.83341 5.75H15.0001V4.25H5.83341V5.75ZM7.50008 17.4167H12.5001V15.9167H7.50008V17.4167Z" fill="#896ADB"/>
<path d="M4.16675 13.3333H6.66675" stroke="#896ADB" stroke-width="1.5" stroke-linecap="round"/>
<path d="M13.3333 8.23696V4.50936M13.3333 4.50936V2.19601C13.3333 1.99923 13.4729 1.83012 13.6661 1.79289L14.0712 1.71484C14.5614 1.62038 15.0683 1.66548 15.5342 1.84502L15.6002 1.87044C16.0621 2.04844 16.5672 2.08169 17.0484 1.96578C17.2785 1.91035 17.4999 2.08475 17.4999 2.32146V4.17271C17.4999 4.37019 17.3646 4.54195 17.1726 4.58819L17.1171 4.60156C16.5911 4.72825 16.0391 4.6919 15.5342 4.49735C15.0683 4.31781 14.5614 4.27271 14.0712 4.36717L13.3333 4.50936Z" stroke="#896ADB" stroke-width="1.5" stroke-linecap="round"/>
</g>
<defs>
<clipPath id="clip0_29_2569">
<rect width="20" height="20" fill="white"/>
</clipPath>
</defs>
</svg>
