<svg width="20" height="20" viewBox="0 0 20 20" fill="none" xmlns="http://www.w3.org/2000/svg">
<path d="M3.33871 6.61089C3.27843 8.201 3.68086 10.9014 6.38967 13.6102C7.04318 14.2637 7.6962 14.783 8.33325 15.1939M4.61476 4.11434C5.77555 2.95355 7.62756 3.10951 8.36458 4.43012L8.90542 5.39923C9.3935 6.2738 9.19757 7.42108 8.42885 8.18981C8.42884 8.18981 8.42884 8.18981 8.42884 8.18982C8.42873 8.18993 7.4965 9.12237 9.18701 10.8129C10.8769 12.5027 11.8093 11.5719 11.8101 11.5711C11.8101 11.571 11.8101 11.571 11.8101 11.571C12.5788 10.8023 13.7261 10.6064 14.6007 11.0945L15.5698 11.6353C16.8904 12.3723 17.0463 14.2243 15.8856 15.3851C15.1881 16.0826 14.3336 16.6254 13.389 16.6612C12.7106 16.6869 11.8302 16.6284 10.8333 16.3425" stroke="#896ADB" stroke-width="1.5" stroke-linecap="round"/>
</svg>
