<svg width="24" height="24" viewBox="0 0 24 24" fill="none" xmlns="http://www.w3.org/2000/svg">
<path d="M7.37756 11.6296H6.62756H7.37756ZM7.37756 12.5556L6.81609 13.0528C6.95137 13.2056 7.14306 13.2966 7.34695 13.3049C7.55084 13.3133 7.74932 13.2382 7.89662 13.0969L7.37756 12.5556ZM9.51905 11.5414C9.81805 11.2547 9.82804 10.7799 9.54137 10.4809C9.2547 10.182 8.77994 10.172 8.48095 10.4586L9.51905 11.5414ZM6.56148 10.5028C6.28686 10.1927 5.81286 10.1639 5.50277 10.4385C5.19267 10.7131 5.16391 11.1871 5.43852 11.4972L6.56148 10.5028ZM14.9317 9.0093C15.213 9.31337 15.6875 9.33184 15.9915 9.05055C16.2956 8.76927 16.3141 8.29476 16.0328 7.9907L14.9317 9.0093ZM12.0437 6.25C9.05802 6.25 6.62756 8.653 6.62756 11.6296H8.12756C8.12756 9.49251 9.87531 7.75 12.0437 7.75V6.25ZM6.62756 11.6296L6.62756 12.5556H8.12756L8.12756 11.6296H6.62756ZM7.89662 13.0969L9.51905 11.5414L8.48095 10.4586L6.85851 12.0142L7.89662 13.0969ZM7.93904 12.0583L6.56148 10.5028L5.43852 11.4972L6.81609 13.0528L7.93904 12.0583ZM16.0328 7.9907C15.0431 6.9209 13.6212 6.25 12.0437 6.25V7.75C13.1879 7.75 14.2154 8.23504 14.9317 9.0093L16.0328 7.9907Z" fill="#896ADB"/>
<path d="M16.6188 11.4445L17.1795 10.9463C17.044 10.7939 16.8523 10.7031 16.6485 10.695C16.4447 10.687 16.2464 10.7622 16.0993 10.9035L16.6188 11.4445ZM14.4805 12.4582C14.1817 12.7451 14.1722 13.2199 14.4591 13.5187C14.746 13.8174 15.2208 13.827 15.5195 13.5401L14.4805 12.4582ZM17.4393 13.4973C17.7144 13.8069 18.1885 13.8349 18.4981 13.5598C18.8078 13.2847 18.8358 12.8107 18.5607 12.501L17.4393 13.4973ZM9.04688 15.0048C8.76342 14.7028 8.28879 14.6877 7.98675 14.9712C7.68472 15.2547 7.66966 15.7293 7.95312 16.0313L9.04688 15.0048ZM11.9348 17.75C14.9276 17.75 17.3688 15.3497 17.3688 12.3704H15.8688C15.8688 14.5048 14.1158 16.25 11.9348 16.25V17.75ZM17.3688 12.3704V11.4445H15.8688V12.3704H17.3688ZM16.0993 10.9035L14.4805 12.4582L15.5195 13.5401L17.1383 11.9854L16.0993 10.9035ZM16.0581 11.9426L17.4393 13.4973L18.5607 12.501L17.1795 10.9463L16.0581 11.9426ZM7.95312 16.0313C8.94543 17.0887 10.3635 17.75 11.9348 17.75V16.25C10.792 16.25 9.76546 15.7705 9.04688 15.0048L7.95312 16.0313Z" fill="#896ADB"/>
<path d="M7 3.33782C8.47087 2.48697 10.1786 2 12 2C17.5228 2 22 6.47715 22 12C22 17.5228 17.5228 22 12 22C6.47715 22 2 17.5228 2 12C2 10.1786 2.48697 8.47087 3.33782 7" stroke="#896ADB" stroke-width="1.5" stroke-linecap="round"/>
</svg>
