<svg width="36" height="36" viewBox="0 0 36 36" fill="none" xmlns="http://www.w3.org/2000/svg">
<path d="M4.5 16.6463V24.1364C4.5 28.7812 4.5 31.1036 5.60116 32.1185C6.12632 32.6024 6.78922 32.9065 7.49537 32.9873C8.97603 33.1567 10.7051 31.6274 14.1632 28.5687C15.6918 27.2167 16.4561 26.5407 17.3404 26.3626C17.7759 26.2749 18.2241 26.2749 18.6596 26.3626C19.5439 26.5407 20.3082 27.2167 21.8368 28.5687C25.2949 31.6274 27.024 33.1567 28.5046 32.9873C29.2108 32.9065 29.8737 32.6024 30.3988 32.1185C31.5 31.1036 31.5 28.7812 31.5 24.1364V16.6463C31.5 10.2134 31.5 6.9969 29.523 4.99845C27.5459 3 24.364 3 18 3C11.636 3 8.45406 3 6.47703 4.99845C5.2662 6.2224 4.79694 7.90322 4.61508 10.5" stroke="#896ADB" stroke-width="1.5" stroke-linecap="round"/>
<path d="M22.5 9H13.5" stroke="#896ADB" stroke-width="1.5" stroke-linecap="round"/>
</svg>
